<svg width="424" height="98" viewBox="0 0 424 98" fill="none" xmlns="http://www.w3.org/2000/svg">
<path d="M43.7076 35.5437C43.0824 34.4658 42.185 33.5712 41.1052 32.9493C40.0255 32.3273 38.8013 32 37.5553 32C36.3092 32 35.0851 32.3273 34.0053 32.9493C32.9256 33.5712 32.0282 34.4658 31.4029 35.5437L2.9529 85.3313C2.32895 86.412 2.00032 87.6378 2 88.8857C1.99968 90.1336 2.32768 91.3596 2.95107 92.4406C3.57446 93.5216 4.4713 94.4196 5.55152 95.0444C6.63174 95.6692 7.85733 95.9987 9.10522 96H66.0053C67.2532 95.9987 68.4788 95.6692 69.559 95.0444C70.6392 94.4196 71.5361 93.5216 72.1595 92.4406C72.7828 91.3596 73.1108 90.1336 73.1105 88.8857C73.1102 87.6378 72.7816 86.412 72.1576 85.3313L43.7076 35.5437Z" stroke="black" stroke-width="4" stroke-linecap="round" stroke-linejoin="round"/>
<path d="M117.143 96H93.5906V92.544H103.575V51.456H94.2306V48H106.391L106.647 54.784C106.647 56.064 106.647 57.0027 106.647 57.6C106.732 58.1973 106.775 59.1787 106.775 60.544C107.799 58.4107 109.036 56.5333 110.487 54.912C111.937 53.2053 113.644 51.7973 115.607 50.688C117.399 49.4933 119.276 48.5973 121.239 48C123.287 47.4027 125.377 47.104 127.511 47.104L127.383 50.56C124.652 50.6453 122.092 51.1573 119.703 52.096C117.399 52.9493 115.308 54.144 113.431 55.68C111.553 57.3013 110.017 59.264 108.823 61.568C107.713 63.7867 107.159 66.2187 107.159 68.864V92.544H117.143V96ZM142.866 96V92.544H152.21V3.45599H142.994V-7.62939e-06H155.794V72.576L178.322 51.456H169.618V48H192.53V51.456H182.93C180.114 54.272 177.554 56.7893 175.25 59.008C172.946 61.2267 170.3 63.7013 167.314 66.432C170.471 70.8693 173.628 75.264 176.786 79.616C179.943 83.8827 183.143 88.192 186.386 92.544H197.266V96H174.354V92.544H182.034C179.132 88.6187 176.188 84.6933 173.202 80.768C170.3 76.8427 167.442 72.8747 164.626 68.864L155.794 77.184V92.544H166.418V96H142.866ZM272.161 96H259.361V89.984C259.361 88.7893 259.361 87.6373 259.361 86.528C259.446 85.4187 259.489 84.2667 259.489 83.072C258.721 84.9493 257.654 86.7413 256.289 88.448C254.923 90.0693 253.302 91.4773 251.425 92.672C249.547 94.0373 247.414 95.104 245.025 95.872C242.721 96.5547 240.246 96.896 237.601 96.896C234.102 96.896 230.817 96.256 227.745 94.976C224.758 93.6107 222.155 91.776 219.937 89.472C217.633 87.2533 215.841 84.6507 214.561 81.664C213.281 78.6773 212.641 75.4347 212.641 71.936C212.641 68.5227 213.281 65.28 214.561 62.208C215.841 59.136 217.633 56.4907 219.937 54.272C222.155 52.0533 224.758 50.304 227.745 49.024C230.817 47.6587 234.102 46.976 237.601 46.976C242.806 46.976 247.329 48.3413 251.169 51.072C255.009 53.7173 257.739 57.0027 259.361 60.928C259.446 58.7947 259.531 56.6613 259.617 54.528C259.702 52.3947 259.787 50.2187 259.873 48H262.689V92.544H272.161V96ZM237.601 50.432C234.614 50.432 231.798 51.0293 229.153 52.224C226.593 53.3333 224.331 54.8693 222.369 56.832C220.491 58.7947 218.998 61.0987 217.889 63.744C216.779 66.304 216.225 69.0347 216.225 71.936C216.225 75.008 216.779 77.8667 217.889 80.512C219.083 83.1573 220.705 85.4187 222.753 87.296C224.63 89.1733 226.849 90.6667 229.409 91.776C231.969 92.8 234.699 93.312 237.601 93.312C240.587 93.312 243.361 92.7573 245.921 91.648C248.566 90.5387 250.87 89.0453 252.833 87.168C254.795 85.2053 256.331 82.944 257.441 80.384C258.55 77.824 259.105 75.008 259.105 71.936C259.105 68.9493 258.55 66.176 257.441 63.616C256.331 60.9707 254.795 58.6667 252.833 56.704C250.87 54.7413 248.566 53.2053 245.921 52.096C243.361 50.9867 240.587 50.432 237.601 50.432ZM311.093 96H287.541V92.544H297.781V51.456H287.541V48H301.365V92.544H311.093V96ZM302.901 31.488C302.901 32.4267 302.559 33.2373 301.877 33.92C301.194 34.5173 300.426 34.816 299.573 34.816C298.634 34.816 297.823 34.5173 297.141 33.92C296.458 33.2373 296.117 32.4267 296.117 31.488C296.117 30.5493 296.458 29.7387 297.141 29.056C297.823 28.3733 298.634 28.032 299.573 28.032C300.426 28.032 301.194 28.3733 301.877 29.056C302.559 29.7387 302.901 30.5493 302.901 31.488ZM367.273 91.392C365.054 93.0987 362.579 94.464 359.849 95.488C357.203 96.4267 354.387 96.896 351.401 96.896C347.902 96.896 344.617 96.256 341.545 94.976C338.558 93.6107 335.955 91.776 333.737 89.472C331.433 87.2533 329.641 84.6507 328.361 81.664C327.081 78.6773 326.441 75.4347 326.441 71.936C326.441 68.5227 327.081 65.28 328.361 62.208C329.641 59.136 331.433 56.4907 333.737 54.272C335.955 52.0533 338.558 50.304 341.545 49.024C344.617 47.6587 347.902 46.976 351.401 46.976C354.473 46.976 357.331 47.488 359.977 48.512C362.707 49.4507 365.139 50.7733 367.273 52.48V64.384H363.945V54.528C362.153 53.248 360.19 52.2667 358.057 51.584C356.009 50.816 353.79 50.432 351.401 50.432C348.414 50.432 345.641 50.9867 343.081 52.096C340.521 53.2053 338.302 54.6987 336.425 56.576C334.377 58.5387 332.798 60.8427 331.689 63.488C330.579 66.1333 330.025 68.9493 330.025 71.936C330.025 74.9227 330.579 77.7387 331.689 80.384C332.798 82.944 334.334 85.1627 336.297 87.04C338.259 89.0027 340.521 90.5387 343.081 91.648C345.641 92.7573 348.414 93.312 351.401 93.312C353.961 93.312 356.393 92.928 358.697 92.16C361.001 91.3067 363.091 90.1547 364.969 88.704L367.273 91.392Z" fill="black"/>
</svg>
